<?xml version="1.0" encoding="UTF-8"?>
<!DOCTYPE svg PUBLIC "-//W3C//DTD SVG 1.0//EN" "http://www.w3.org/TR/2001/REC-SVG-20010904/DTD/svg10.dtd">
<!-- Creator: CorelDRAW X7 -->
<svg xmlns="http://www.w3.org/2000/svg" xml:space="preserve" width="4.25in" height="4.25in" version="1.0" style="shape-rendering:geometricPrecision; text-rendering:geometricPrecision; image-rendering:optimizeQuality; fill-rule:evenodd; clip-rule:evenodd"
viewBox="0 0 4250 4250"
 xmlns:xlink="http://www.w3.org/1999/xlink">
 <defs>
  <style type="text/css">
   <![CDATA[
    .fil0 {fill:black}
   ]]>
  </style>
 </defs>
 <g id="Layer_x0020_1">
  <metadata id="CorelCorpID_0Corel-Layer"/>
  <path class="fil0" d="M2205 2679c-167,7 -245,-59 -165,-256l781 -1940c73,-166 175,-182 299,-83 1420,2204 1685,1554 -915,2279zm1418 1477l-204 -335 -125 118 0 184c0,44 -12,79 -35,103 -24,24 -50,35 -81,35 -36,0 -64,-11 -84,-35 -20,-24 -30,-59 -30,-105l0 -985c0,-51 9,-90 29,-117 20,-27 48,-40 85,-40 35,0 64,12 85,36 21,25 31,60 31,108l0 560 260 -273c32,-34 57,-57 73,-69 17,-13 38,-19 62,-19 29,0 53,9 72,28 19,18 29,41 29,69 0,33 -32,78 -94,135l-123 112 237 373c18,27 30,49 38,63 8,14 11,28 11,41 0,37 -10,66 -30,87 -20,21 -46,31 -79,31 -28,0 -50,-7 -65,-22 -15,-16 -36,-43 -62,-83zm-710 -180c0,28 -9,59 -26,92 -17,33 -43,64 -79,93 -35,30 -79,54 -133,72 -53,18 -114,27 -181,27 -143,0 -254,-42 -334,-125 -81,-83 -121,-195 -121,-335 0,-95 19,-178 55,-251 37,-73 90,-129 160,-169 69,-40 152,-60 249,-60 59,0 114,9 164,27 50,17 92,40 127,68 35,27 61,57 79,88 19,31 28,61 28,88 0,27 -10,51 -31,70 -21,19 -45,29 -75,29 -19,0 -35,-5 -47,-15 -13,-10 -27,-26 -43,-48 -29,-42 -58,-75 -89,-96 -31,-21 -70,-32 -117,-32 -68,0 -123,26 -165,80 -42,53 -62,126 -62,218 0,44 5,83 16,120 10,36 26,67 46,93 20,26 45,45 74,58 28,13 60,20 95,20 46,0 85,-11 118,-32 34,-21 63,-54 88,-98 14,-26 29,-46 46,-61 16,-15 36,-22 60,-22 28,0 52,11 70,32 18,22 28,44 28,69zm-1068 -523l0 668c0,46 -11,81 -33,105 -22,24 -49,35 -83,35 -34,0 -61,-12 -83,-36 -21,-24 -31,-59 -31,-104l0 -661c0,-46 10,-80 31,-103 22,-23 49,-35 83,-35 34,0 61,12 83,35 22,23 33,55 33,96zm-114 -238c-32,0 -59,-10 -82,-30 -23,-19 -34,-47 -34,-84 0,-32 11,-59 35,-80 23,-21 50,-32 81,-32 30,0 56,10 80,29 23,19 34,47 34,83 0,36 -11,64 -34,84 -22,20 -49,30 -80,30zm-586 906l0 -1002c0,-46 10,-81 31,-105 20,-23 48,-35 83,-35 35,0 63,12 84,35 22,24 33,59 33,105l0 1002c0,47 -11,82 -33,105 -22,24 -50,35 -84,35 -34,0 -61,-12 -82,-36 -21,-24 -32,-59 -32,-104zm-196 -161c0,63 -15,118 -46,163 -31,46 -77,80 -138,103 -60,24 -134,35 -221,35 -83,0 -154,-12 -213,-38 -59,-25 -103,-57 -131,-95 -28,-38 -42,-76 -42,-114 0,-26 8,-47 27,-65 18,-18 40,-27 68,-27 24,0 43,6 56,18 13,11 25,28 37,50 24,41 52,72 85,92 33,20 78,30 135,30 46,0 84,-10 113,-31 30,-20 45,-44 45,-70 0,-41 -15,-71 -46,-89 -31,-19 -81,-37 -152,-54 -79,-19 -144,-40 -194,-62 -50,-21 -90,-50 -120,-86 -29,-35 -44,-79 -44,-131 0,-47 13,-90 41,-131 28,-42 68,-74 122,-99 54,-24 119,-37 195,-37 60,0 114,6 161,19 48,12 88,29 120,50 32,21 56,44 72,69 17,26 25,50 25,75 0,26 -8,48 -26,65 -18,17 -43,25 -76,25 -24,0 -44,-7 -61,-20 -16,-14 -35,-34 -57,-61 -17,-23 -38,-41 -61,-54 -24,-14 -56,-21 -97,-21 -42,0 -76,9 -104,27 -27,18 -41,40 -41,67 0,24 10,44 30,59 21,16 48,29 82,39 35,10 82,22 142,37 72,17 131,39 176,63 45,24 80,53 103,86 23,33 35,70 35,113zm1089 -3919c167,-8 245,58 165,255l-781 1940c-73,166 -175,182 -300,83 -1419,-2204 -1684,-1553 916,-2278zm-325 310c115,-5 169,41 114,176l-538 1336c-50,115 -120,126 -206,57 -978,-1517 -1161,-1069 630,-1569zm817 2017c-115,5 -169,-41 -114,-176l538 -1336c50,-114 120,-126 206,-57 978,1517 1160,1070 -630,1569z"/>
 </g>
</svg>
